<svg xmlns="http://www.w3.org/2000/svg" viewBox="0 0 384 384" width="384" height="384">
  <rect x="120" y="0" width="24" height="24" fill="#141116"/>
  <rect x="144" y="0" width="24" height="24" fill="#141116"/>
  <rect x="120" y="24" width="24" height="24" fill="#141116"/>
  <rect x="144" y="24" width="24" height="24" fill="#141116"/>
  <rect x="168" y="24" width="24" height="24" fill="#141116"/>
  <rect x="144" y="48" width="24" height="24" fill="#141116"/>
  <rect x="168" y="48" width="24" height="24" fill="#141116"/>
  <rect x="192" y="48" width="24" height="24" fill="#141116"/>
  <rect x="72" y="72" width="24" height="24" fill="#141116"/>
  <rect x="96" y="72" width="24" height="24" fill="#141116"/>
  <rect x="120" y="72" width="24" height="24" fill="#141116"/>
  <rect x="168" y="72" width="24" height="24" fill="#141116"/>
  <rect x="192" y="72" width="24" height="24" fill="#141116"/>
  <rect x="96" y="96" width="24" height="24" fill="#141116"/>
  <rect x="120" y="96" width="24" height="24" fill="#141116"/>
  <rect x="144" y="96" width="24" height="24" fill="#141116"/>
  <rect x="168" y="96" width="24" height="24" fill="#141116"/>
  <rect x="192" y="96" width="24" height="24" fill="#141116"/>
  <rect x="240" y="96" width="24" height="24" fill="#141116"/>
  <rect x="264" y="96" width="24" height="24" fill="#141116"/>
  <rect x="120" y="120" width="24" height="24" fill="#141116"/>
  <rect x="144" y="120" width="24" height="24" fill="#141116"/>
  <rect x="168" y="120" width="24" height="24" fill="#141116"/>
  <rect x="192" y="120" width="24" height="24" fill="#141116"/>
  <rect x="216" y="120" width="24" height="24" fill="#141116"/>
  <rect x="240" y="120" width="24" height="24" fill="#141116"/>
  <rect x="264" y="120" width="24" height="24" fill="#141116"/>
  <rect x="288" y="120" width="24" height="24" fill="#141116"/>
  <rect x="312" y="120" width="24" height="24" fill="#141116"/>
  <rect x="168" y="144" width="24" height="24" fill="#141116"/>
  <rect x="192" y="144" width="24" height="24" fill="#141116"/>
  <rect x="216" y="144" width="24" height="24" fill="#141116"/>
  <rect x="240" y="144" width="24" height="24" fill="#141116"/>
  <rect x="264" y="144" width="24" height="24" fill="#141116"/>
  <rect x="288" y="144" width="24" height="24" fill="#141116"/>
  <rect x="312" y="144" width="24" height="24" fill="#141116"/>
  <rect x="336" y="144" width="24" height="24" fill="#141116"/>
  <rect x="96" y="168" width="24" height="24" fill="#141116"/>
  <rect x="120" y="168" width="24" height="24" fill="#141116"/>
  <rect x="144" y="168" width="24" height="24" fill="#141116"/>
  <rect x="192" y="168" width="24" height="24" fill="#141116"/>
  <rect x="216" y="168" width="24" height="24" fill="#141116"/>
  <rect x="240" y="168" width="24" height="24" fill="#141116"/>
  <rect x="264" y="168" width="24" height="24" fill="#141116"/>
  <rect x="288" y="168" width="24" height="24" fill="#141116"/>
  <rect x="312" y="168" width="24" height="24" fill="#141116"/>
  <rect x="336" y="168" width="24" height="24" fill="#141116"/>
  <rect x="48" y="192" width="24" height="24" fill="#141116"/>
  <rect x="72" y="192" width="24" height="24" fill="#141116"/>
  <rect x="96" y="192" width="24" height="24" fill="#141116"/>
  <rect x="120" y="192" width="24" height="24" fill="#141116"/>
  <rect x="144" y="192" width="24" height="24" fill="#141116"/>
  <rect x="168" y="192" width="24" height="24" fill="#141116"/>
  <rect x="192" y="192" width="24" height="24" fill="#141116"/>
  <rect x="216" y="192" width="24" height="24" fill="#141116"/>
  <rect x="240" y="192" width="24" height="24" fill="#141116"/>
  <rect x="264" y="192" width="24" height="24" fill="#141116"/>
  <rect x="288" y="192" width="24" height="24" fill="#141116"/>
  <rect x="312" y="192" width="24" height="24" fill="#141116"/>
  <rect x="48" y="216" width="24" height="24" fill="#141116"/>
  <rect x="72" y="216" width="24" height="24" fill="#141116"/>
  <rect x="96" y="216" width="24" height="24" fill="#141116"/>
  <rect x="120" y="216" width="24" height="24" fill="#141116"/>
  <rect x="144" y="216" width="24" height="24" fill="#141116"/>
  <rect x="168" y="216" width="24" height="24" fill="#141116"/>
  <rect x="192" y="216" width="24" height="24" fill="#141116"/>
  <rect x="216" y="216" width="24" height="24" fill="#141116"/>
  <rect x="240" y="216" width="24" height="24" fill="#141116"/>
  <rect x="264" y="216" width="24" height="24" fill="#141116"/>
  <rect x="288" y="216" width="24" height="24" fill="#141116"/>
  <rect x="24" y="240" width="24" height="24" fill="#141116"/>
  <rect x="48" y="240" width="24" height="24" fill="#141116"/>
  <rect x="72" y="240" width="24" height="24" fill="#141116"/>
  <rect x="96" y="240" width="24" height="24" fill="#141116"/>
  <rect x="120" y="240" width="24" height="24" fill="#141116"/>
  <rect x="144" y="240" width="24" height="24" fill="#141116"/>
  <rect x="168" y="240" width="24" height="24" fill="#141116"/>
  <rect x="192" y="240" width="24" height="24" fill="#141116"/>
  <rect x="216" y="240" width="24" height="24" fill="#141116"/>
  <rect x="240" y="240" width="24" height="24" fill="#141116"/>
  <rect x="0" y="264" width="24" height="24" fill="#141116"/>
  <rect x="24" y="264" width="24" height="24" fill="#141116"/>
  <rect x="48" y="264" width="24" height="24" fill="#141116"/>
  <rect x="72" y="264" width="24" height="24" fill="#141116"/>
  <rect x="96" y="264" width="24" height="24" fill="#141116"/>
  <rect x="120" y="264" width="24" height="24" fill="#141116"/>
  <rect x="144" y="264" width="24" height="24" fill="#141116"/>
  <rect x="168" y="264" width="24" height="24" fill="#141116"/>
  <rect x="192" y="264" width="24" height="24" fill="#141116"/>
  <rect x="216" y="264" width="24" height="24" fill="#141116"/>
  <rect x="24" y="288" width="24" height="24" fill="#141116"/>
  <rect x="48" y="288" width="24" height="24" fill="#141116"/>
  <rect x="72" y="288" width="24" height="24" fill="#141116"/>
  <rect x="96" y="288" width="24" height="24" fill="#141116"/>
  <rect x="120" y="288" width="24" height="24" fill="#141116"/>
  <rect x="144" y="288" width="24" height="24" fill="#141116"/>
  <rect x="168" y="288" width="24" height="24" fill="#141116"/>
  <rect x="192" y="288" width="24" height="24" fill="#141116"/>
  <rect x="216" y="288" width="24" height="24" fill="#141116"/>
  <rect x="24" y="312" width="24" height="24" fill="#141116"/>
  <rect x="48" y="312" width="24" height="24" fill="#141116"/>
  <rect x="72" y="312" width="24" height="24" fill="#141116"/>
  <rect x="96" y="312" width="24" height="24" fill="#141116"/>
  <rect x="120" y="312" width="24" height="24" fill="#141116"/>
  <rect x="144" y="312" width="24" height="24" fill="#141116"/>
  <rect x="168" y="312" width="24" height="24" fill="#141116"/>
  <rect x="192" y="312" width="24" height="24" fill="#141116"/>
  <rect x="216" y="312" width="24" height="24" fill="#141116"/>
  <rect x="48" y="336" width="24" height="24" fill="#141116"/>
  <rect x="72" y="336" width="24" height="24" fill="#141116"/>
  <rect x="96" y="336" width="24" height="24" fill="#141116"/>
  <rect x="120" y="336" width="24" height="24" fill="#141116"/>
  <rect x="144" y="336" width="24" height="24" fill="#141116"/>
  <rect x="168" y="336" width="24" height="24" fill="#141116"/>
  <rect x="216" y="336" width="24" height="24" fill="#141116"/>
  <rect x="240" y="336" width="24" height="24" fill="#141116"/>
</svg>